<svg   id="chart"   width="1000"   height="500"   viewBox="0 0 1000 500"   xmlns="http://www.w3.org/2000/svg" >      <path d="M 0,497.4250914567559 C 25,485.9195545138717 75,463.24464302692314 125,439.89740674233457 C 175,416.550170457746 200,400.2266043052373 250,380.6889100338131 C 300,361.1512157623889 325,349.15456810401446 375,342.20893538521364 C 425,335.2633026664128 450,355.4465477711466 500,345.960746439809 C 550,336.4749451084714 575,322.7763462198352 625,294.77992872852553 C 675,266.78351123721586 700,222.27191617367498 750,205.9786589832607 C 800,189.68540179284642 825,252.84638345795673 875,213.31364277645417 C 925,173.7809020949516 975,49.3146930158891 1000,8.31495557574783,L 1000 500,L 0 500Z" fill="#444cf71a" />   <path d="M 0,497.4250914567559 C 25,485.9195545138717 75,463.24464302692314 125,439.89740674233457 C 175,416.550170457746 200,400.2266043052373 250,380.6889100338131 C 300,361.1512157623889 325,349.15456810401446 375,342.20893538521364 C 425,335.2633026664128 450,355.4465477711466 500,345.960746439809 C 550,336.4749451084714 575,322.7763462198352 625,294.77992872852553 C 675,266.78351123721586 700,222.27191617367498 750,205.9786589832607 C 800,189.68540179284642 825,252.84638345795673 875,213.31364277645417 C 925,173.7809020949516 975,49.3146930158891 1000,8.31495557574783" fill="none" stroke="#444cf7" stroke-width="4px" />   <g>   		<circle cx="0" cy="497.4250914567559" r="8" fill="#444cf7" />,		<circle cx="125" cy="439.89740674233457" r="8" fill="#444cf7" />,		<circle cx="250" cy="380.6889100338131" r="8" fill="#444cf7" />,		<circle cx="375" cy="342.20893538521364" r="8" fill="#444cf7" />,		<circle cx="500" cy="345.960746439809" r="8" fill="#444cf7" />,		<circle cx="625" cy="294.77992872852553" r="8" fill="#444cf7" />,		<circle cx="750" cy="205.9786589832607" r="8" fill="#444cf7" />,		<circle cx="875" cy="213.31364277645417" r="8" fill="#444cf7" />,		<circle cx="1000" cy="8.31495557574783" r="8" fill="#444cf7" />   </g> </svg>