<svg   id="chart"   width="1000"   height="500"   viewBox="0 0 1000 500"   xmlns="http://www.w3.org/2000/svg" >      <path d="M 0,497.0024151794717 C 24.999999999999996,489.18817340949806 75,470.58194912977496 125,457.93120632960336 C 175,445.28046352943176 200,457.0175044450019 250,433.7487011786138 C 300,410.47989791222574 325,363.23814821324095 375,341.5871899976628 C 425,319.93623178208463 450,329.550997606698 500,325.49391010072316 C 550,321.4368225947484 575,342.00821809006953 625,321.3017524677888 C 675,300.59528684550804 700,249.3059334883669 750,221.96158198931937 C 800,194.61723049027188 825,180.4495667984418 875,184.57999497255128 C 925,188.7104231466608 975,231.00697728240374 1000,242.61372285986687,L 1000 500,L 0 500Z" fill="#444cf71a" />   <path d="M 0,497.0024151794717 C 24.999999999999996,489.18817340949806 75,470.58194912977496 125,457.93120632960336 C 175,445.28046352943176 200,457.0175044450019 250,433.7487011786138 C 300,410.47989791222574 325,363.23814821324095 375,341.5871899976628 C 425,319.93623178208463 450,329.550997606698 500,325.49391010072316 C 550,321.4368225947484 575,342.00821809006953 625,321.3017524677888 C 675,300.59528684550804 700,249.3059334883669 750,221.96158198931937 C 800,194.61723049027188 825,180.4495667984418 875,184.57999497255128 C 925,188.7104231466608 975,231.00697728240374 1000,242.61372285986687" fill="none" stroke="#444cf7" stroke-width="4px" />   <g>   		<circle cx="0" cy="497.0024151794717" r="8" fill="#444cf7" />,		<circle cx="125" cy="457.93120632960336" r="8" fill="#444cf7" />,		<circle cx="250" cy="433.7487011786138" r="8" fill="#444cf7" />,		<circle cx="375" cy="341.5871899976628" r="8" fill="#444cf7" />,		<circle cx="500" cy="325.49391010072316" r="8" fill="#444cf7" />,		<circle cx="625" cy="321.3017524677888" r="8" fill="#444cf7" />,		<circle cx="750" cy="221.96158198931937" r="8" fill="#444cf7" />,		<circle cx="875" cy="184.57999497255128" r="8" fill="#444cf7" />,		<circle cx="1000" cy="242.61372285986687" r="8" fill="#444cf7" />   </g> </svg>