<svg   id="chart"   width="1000"   height="500"   viewBox="0 0 1000 500"   xmlns="http://www.w3.org/2000/svg" >      <path d="M 0,493.9901717431842 C 25,484.4679184714502 75,464.1102679475876 125,446.3789053845142 C 175,428.6475428214408 200,418.26764395424476 250,405.33335892781736 C 300,392.39907390138995 325,389.68902418862433 375,381.7074802523773 C 425,373.7259363161303 450,378.0572721420484 500,365.4256392465822 C 550,352.79400635111597 575,357.7004295919148 625,318.5493157750461 C 675,279.3982019581774 700,187.3200794735584 750,169.67007016223863 C 800,152.0200608509189 825,234.70587484098783 875,230.29926921844742 C 925,225.892663595907 975,164.16948748331873 1000,147.63704204953655,L 1000 500,L 0 500Z" fill="#444cf71a" />   <path d="M 0,493.9901717431842 C 25,484.4679184714502 75,464.1102679475876 125,446.3789053845142 C 175,428.6475428214408 200,418.26764395424476 250,405.33335892781736 C 300,392.39907390138995 325,389.68902418862433 375,381.7074802523773 C 425,373.7259363161303 450,378.0572721420484 500,365.4256392465822 C 550,352.79400635111597 575,357.7004295919148 625,318.5493157750461 C 675,279.3982019581774 700,187.3200794735584 750,169.67007016223863 C 800,152.0200608509189 825,234.70587484098783 875,230.29926921844742 C 925,225.892663595907 975,164.16948748331873 1000,147.63704204953655" fill="none" stroke="#444cf7" stroke-width="4px" />   <g>   		<circle cx="0" cy="493.9901717431842" r="8" fill="#444cf7" />,		<circle cx="125" cy="446.3789053845142" r="8" fill="#444cf7" />,		<circle cx="250" cy="405.33335892781736" r="8" fill="#444cf7" />,		<circle cx="375" cy="381.7074802523773" r="8" fill="#444cf7" />,		<circle cx="500" cy="365.4256392465822" r="8" fill="#444cf7" />,		<circle cx="625" cy="318.5493157750461" r="8" fill="#444cf7" />,		<circle cx="750" cy="169.67007016223863" r="8" fill="#444cf7" />,		<circle cx="875" cy="230.29926921844742" r="8" fill="#444cf7" />,		<circle cx="1000" cy="147.63704204953655" r="8" fill="#444cf7" />   </g> </svg>