<svg   id="chart"   width="1000"   height="500"   viewBox="0 0 1000 500"   xmlns="http://www.w3.org/2000/svg" >      <path d="M 0,492.27195539862936 C 25,481.6379299770748 75,452.01349161444165 125,439.10182829085664 C 175,426.1901649672717 200,442.11044792609147 250,427.7136387807045 C 300,413.31682963531756 325,380.7775334828236 375,367.1177825639219 C 425,353.4580316450201 450,393.6464338449698 500,359.41488418619576 C 550,325.1833345274217 575,221.34619381818047 625,195.96003427005178 C 675,170.5738747219231 700,233.27489038389126 750,232.48408644555235 C 800,231.69328250721344 825,231.85238465515772 875,192.00601457835722 C 925,152.15964450155676 975,65.00299176491144 1000,33.25223606154998,L 1000 500,L 0 500Z" fill="#444cf71a" />   <path d="M 0,492.27195539862936 C 25,481.6379299770748 75,452.01349161444165 125,439.10182829085664 C 175,426.1901649672717 200,442.11044792609147 250,427.7136387807045 C 300,413.31682963531756 325,380.7775334828236 375,367.1177825639219 C 425,353.4580316450201 450,393.6464338449698 500,359.41488418619576 C 550,325.1833345274217 575,221.34619381818047 625,195.96003427005178 C 675,170.5738747219231 700,233.27489038389126 750,232.48408644555235 C 800,231.69328250721344 825,231.85238465515772 875,192.00601457835722 C 925,152.15964450155676 975,65.00299176491144 1000,33.25223606154998" fill="none" stroke="#444cf7" stroke-width="4px" />   <g>   		<circle cx="0" cy="492.27195539862936" r="8" fill="#444cf7" />,		<circle cx="125" cy="439.10182829085664" r="8" fill="#444cf7" />,		<circle cx="250" cy="427.7136387807045" r="8" fill="#444cf7" />,		<circle cx="375" cy="367.1177825639219" r="8" fill="#444cf7" />,		<circle cx="500" cy="359.41488418619576" r="8" fill="#444cf7" />,		<circle cx="625" cy="195.96003427005178" r="8" fill="#444cf7" />,		<circle cx="750" cy="232.48408644555235" r="8" fill="#444cf7" />,		<circle cx="875" cy="192.00601457835722" r="8" fill="#444cf7" />,		<circle cx="1000" cy="33.25223606154998" r="8" fill="#444cf7" />   </g> </svg>