<svg   id="chart"   width="1000"   height="500"   viewBox="0 0 1000 500"   xmlns="http://www.w3.org/2000/svg" >      <path d="M 0,492.20134313366674 C 25.000000000000004,485.5517755473406 75,473.97996477898045 125,458.95350520203584 C 175,443.92704562509124 200,429.249230144608 250,417.06904524894367 C 300,404.8888603532793 325,422.1528629298737 375,398.0525807237142 C 425,373.95229851755465 450,322.7302211501294 500,296.56763421814605 C 550,270.4050472861627 575,274.21438550428445 625,267.2396460637974 C 675,260.26490662331037 700,276.70358206430626 750,261.6939370157109 C 800,246.68429196711557 825,215.46827762792265 875,192.19142082082078 C 925,168.91456401371892 975,154.68600654832548 1000,145.30965298020163,L 1000 500,L 0 500Z" fill="#444cf71a" />   <path d="M 0,492.20134313366674 C 25.000000000000004,485.5517755473406 75,473.97996477898045 125,458.95350520203584 C 175,443.92704562509124 200,429.249230144608 250,417.06904524894367 C 300,404.8888603532793 325,422.1528629298737 375,398.0525807237142 C 425,373.95229851755465 450,322.7302211501294 500,296.56763421814605 C 550,270.4050472861627 575,274.21438550428445 625,267.2396460637974 C 675,260.26490662331037 700,276.70358206430626 750,261.6939370157109 C 800,246.68429196711557 825,215.46827762792265 875,192.19142082082078 C 925,168.91456401371892 975,154.68600654832548 1000,145.30965298020163" fill="none" stroke="#444cf7" stroke-width="4px" />   <g>   		<circle cx="0" cy="492.20134313366674" r="8" fill="#444cf7" />,		<circle cx="125" cy="458.95350520203584" r="8" fill="#444cf7" />,		<circle cx="250" cy="417.06904524894367" r="8" fill="#444cf7" />,		<circle cx="375" cy="398.0525807237142" r="8" fill="#444cf7" />,		<circle cx="500" cy="296.56763421814605" r="8" fill="#444cf7" />,		<circle cx="625" cy="267.2396460637974" r="8" fill="#444cf7" />,		<circle cx="750" cy="261.6939370157109" r="8" fill="#444cf7" />,		<circle cx="875" cy="192.19142082082078" r="8" fill="#444cf7" />,		<circle cx="1000" cy="145.30965298020163" r="8" fill="#444cf7" />   </g> </svg>